<svg id="svg" version="1.1" xmlns="http://www.w3.org/2000/svg" xmlns:xlink="http://www.w3.org/1999/xlink" width="400" height="160.0767754318618" viewBox="0, 0, 400,160.0767754318618"><g id="svgg"><path id="path0" d="M270.613 54.078 C 270.472 54.218,270.236 54.333,270.089 54.333 C 269.742 54.333,268.500 55.560,268.500 55.904 C 268.500 56.048,268.425 56.167,268.333 56.167 C 267.945 56.167,268.124 83.079,268.517 83.787 C 268.822 84.335,270.073 85.643,270.327 85.679 C 270.810 85.748,271.072 85.838,271.222 85.988 C 271.441 86.208,273.451 86.227,273.528 86.010 C 273.558 85.924,273.786 85.827,274.034 85.794 C 274.282 85.762,274.621 85.579,274.786 85.387 C 274.952 85.196,275.236 85.011,275.417 84.976 C 275.598 84.941,275.773 84.771,275.807 84.599 C 275.840 84.426,276.045 84.106,276.263 83.888 L 276.659 83.492 276.665 69.908 C 276.670 57.940,276.640 56.313,276.418 56.228 C 276.280 56.174,276.167 55.989,276.167 55.816 C 276.167 55.642,276.092 55.500,276.000 55.500 C 275.908 55.500,275.833 55.400,275.833 55.278 C 275.833 55.156,275.646 54.956,275.417 54.833 C 275.188 54.711,275.000 54.548,275.000 54.472 C 275.000 54.396,274.813 54.333,274.583 54.333 C 274.339 54.333,274.184 54.247,274.208 54.125 C 274.276 53.787,270.947 53.743,270.613 54.078 " stroke="none" fill="#fcd43c" fill-rule="evenodd"></path><path id="path1" d="M141.500 75.083 L 141.500 105.000 146.833 105.000 L 152.167 105.000 152.167 91.167 C 152.167 81.441,152.220 77.333,152.345 77.333 C 152.537 77.333,153.000 76.924,153.000 76.754 C 153.000 76.582,153.807 75.833,153.992 75.833 C 154.088 75.833,154.167 75.755,154.167 75.659 C 154.167 75.355,154.971 74.667,155.326 74.667 C 155.513 74.667,155.667 74.586,155.667 74.488 C 155.667 74.194,156.119 73.833,156.488 73.833 C 156.678 73.833,156.833 73.758,156.833 73.667 C 156.833 73.575,157.054 73.500,157.323 73.500 C 157.593 73.500,157.860 73.425,157.917 73.333 C 157.973 73.242,158.197 73.167,158.415 73.167 C 158.632 73.167,158.922 73.054,159.060 72.917 C 159.426 72.550,163.586 72.550,163.727 72.917 C 163.783 73.063,164.033 73.167,164.328 73.167 C 164.606 73.167,164.833 73.242,164.833 73.333 C 164.833 73.425,164.946 73.500,165.083 73.500 C 165.221 73.500,165.333 73.575,165.333 73.667 C 165.333 73.758,165.456 73.833,165.605 73.833 C 165.903 73.833,166.500 74.438,166.500 74.739 C 166.500 74.842,166.650 75.035,166.833 75.167 C 167.050 75.323,167.167 75.598,167.167 75.953 C 167.167 76.254,167.242 76.500,167.333 76.500 C 167.425 76.500,167.500 76.915,167.500 77.422 C 167.500 78.088,167.569 78.370,167.750 78.440 C 167.969 78.524,168.000 80.160,168.000 91.768 L 168.000 105.000 173.167 105.000 L 178.333 105.000 178.333 89.833 C 178.333 79.833,178.277 74.667,178.167 74.667 C 178.075 74.667,178.000 74.329,178.000 73.917 C 178.000 73.361,177.935 73.167,177.750 73.167 C 177.565 73.167,177.500 72.973,177.500 72.427 C 177.500 72.019,177.425 71.640,177.333 71.583 C 177.242 71.527,177.167 71.335,177.167 71.157 C 177.167 70.979,177.092 70.833,177.000 70.833 C 176.908 70.833,176.833 70.646,176.833 70.417 C 176.833 70.157,176.739 70.000,176.583 70.000 C 176.444 70.000,176.333 69.852,176.333 69.667 C 176.333 69.483,176.258 69.333,176.167 69.333 C 176.075 69.333,176.000 69.253,176.000 69.155 C 176.000 68.924,175.576 68.500,175.345 68.500 C 175.247 68.500,175.167 68.369,175.166 68.208 C 175.166 67.776,174.431 67.000,174.022 67.000 C 173.827 67.000,173.667 66.915,173.667 66.811 C 173.667 66.536,172.799 65.834,172.458 65.834 C 172.298 65.833,172.167 65.758,172.167 65.667 C 172.167 65.575,171.979 65.500,171.750 65.500 C 171.491 65.500,171.333 65.406,171.333 65.250 C 171.333 65.111,171.185 65.000,171.000 65.000 C 170.817 65.000,170.667 64.925,170.667 64.833 C 170.667 64.742,170.404 64.667,170.083 64.667 C 169.762 64.667,169.500 64.592,169.500 64.500 C 169.500 64.408,169.246 64.333,168.934 64.333 C 168.586 64.333,168.332 64.238,168.273 64.083 C 168.191 63.871,167.569 63.833,164.083 63.833 C 160.598 63.833,159.975 63.871,159.894 64.083 C 159.834 64.238,159.581 64.333,159.232 64.333 C 158.921 64.333,158.667 64.408,158.667 64.500 C 158.667 64.592,158.442 64.667,158.167 64.667 C 157.892 64.667,157.667 64.742,157.667 64.833 C 157.667 64.925,157.479 65.000,157.250 65.000 C 156.991 65.000,156.833 65.094,156.833 65.250 C 156.833 65.406,156.676 65.500,156.417 65.500 C 156.188 65.500,156.000 65.575,156.000 65.667 C 156.000 65.758,155.850 65.833,155.667 65.833 C 155.483 65.833,155.333 65.908,155.333 66.000 C 155.333 66.092,155.221 66.167,155.083 66.167 C 154.946 66.167,154.833 66.242,154.833 66.333 C 154.833 66.425,154.683 66.500,154.500 66.500 C 154.315 66.500,154.167 66.611,154.167 66.750 C 154.167 66.887,154.088 67.000,153.992 67.000 C 153.807 67.000,153.000 67.749,153.000 67.921 C 153.000 68.091,152.537 68.500,152.345 68.500 C 152.247 68.500,152.167 68.575,152.167 68.667 C 152.167 68.758,152.092 68.833,152.000 68.833 C 151.908 68.833,151.833 68.496,151.833 68.083 C 151.833 67.671,151.908 67.333,152.000 67.333 C 152.109 67.333,152.167 63.528,152.167 56.250 L 152.167 45.167 146.833 45.167 L 141.500 45.167 141.500 75.083 M333.000 75.086 L 333.000 105.005 338.375 104.961 L 343.750 104.917 343.793 96.292 C 343.817 91.548,343.879 87.667,343.930 87.667 C 344.080 87.667,344.500 88.128,344.500 88.293 C 344.500 88.376,344.688 88.544,344.917 88.667 C 345.146 88.789,345.333 89.027,345.333 89.195 C 345.333 89.363,345.408 89.500,345.500 89.500 C 345.592 89.500,345.667 89.580,345.667 89.679 C 345.667 89.873,346.077 90.333,346.250 90.333 C 346.423 90.333,346.833 90.794,346.833 90.988 C 346.833 91.086,346.908 91.167,347.000 91.167 C 347.092 91.167,347.167 91.262,347.167 91.380 C 347.167 91.497,347.298 91.707,347.458 91.847 C 347.619 91.987,347.899 92.304,348.081 92.551 C 348.263 92.798,348.507 93.000,348.623 93.000 C 348.739 93.000,348.833 93.112,348.833 93.250 C 348.833 93.388,348.908 93.500,349.000 93.500 C 349.092 93.500,349.167 93.619,349.167 93.764 C 349.167 93.910,349.579 94.432,350.083 94.924 C 350.587 95.416,351.000 95.924,351.000 96.053 C 351.000 96.181,351.188 96.427,351.417 96.600 C 351.646 96.772,351.833 96.975,351.833 97.051 C 351.833 97.215,352.262 97.667,352.417 97.667 C 352.590 97.667,353.000 98.127,353.000 98.321 C 353.000 98.420,353.075 98.500,353.167 98.500 C 353.258 98.500,353.333 98.637,353.333 98.805 C 353.333 98.973,353.521 99.211,353.750 99.333 C 353.979 99.456,354.167 99.622,354.167 99.702 C 354.167 99.907,354.948 100.667,355.159 100.667 C 355.255 100.667,355.333 100.823,355.333 101.014 C 355.333 101.216,355.718 101.737,356.250 102.257 C 356.754 102.749,357.167 103.250,357.167 103.369 C 357.167 103.489,357.428 103.811,357.746 104.085 C 358.065 104.359,358.328 104.677,358.330 104.792 C 358.333 104.955,359.713 105.000,364.667 105.000 L 371.000 105.000 371.000 104.482 C 371.000 104.073,370.807 103.777,370.083 103.076 C 369.579 102.588,369.167 102.112,369.167 102.018 C 369.167 101.925,368.979 101.661,368.750 101.432 C 368.521 101.203,368.333 100.969,368.333 100.912 C 368.333 100.777,367.887 100.333,367.750 100.333 C 367.540 100.333,367.167 99.853,367.167 99.583 C 367.167 99.314,366.793 98.833,366.583 98.833 C 366.410 98.833,366.000 98.373,366.000 98.179 C 366.000 98.080,365.925 98.000,365.833 98.000 C 365.742 98.000,365.667 97.850,365.667 97.667 C 365.667 97.481,365.556 97.333,365.417 97.333 C 365.279 97.333,365.167 97.254,365.167 97.157 C 365.167 97.060,364.829 96.648,364.417 96.241 C 364.004 95.835,363.667 95.406,363.667 95.288 C 363.667 95.170,363.517 94.965,363.333 94.833 C 363.150 94.701,363.000 94.497,363.000 94.380 C 363.000 94.263,362.922 94.167,362.826 94.167 C 362.564 94.167,361.833 93.384,361.833 93.103 C 361.833 92.968,361.646 92.710,361.417 92.530 C 361.188 92.350,361.000 92.153,361.000 92.093 C 361.000 91.917,360.197 91.167,360.008 91.167 C 359.912 91.167,359.833 91.013,359.833 90.826 C 359.833 90.471,359.145 89.667,358.841 89.667 C 358.745 89.667,358.667 89.571,358.667 89.453 C 358.667 89.336,358.517 89.132,358.333 89.000 C 358.150 88.868,358.000 88.658,358.000 88.533 C 358.000 88.409,357.662 87.970,357.250 87.557 C 356.837 87.145,356.500 86.738,356.500 86.654 C 356.500 86.569,356.387 86.500,356.250 86.500 C 356.111 86.500,356.000 86.352,356.000 86.167 C 356.000 85.983,355.925 85.833,355.833 85.833 C 355.742 85.833,355.667 85.753,355.667 85.655 C 355.667 85.461,355.256 85.000,355.083 85.000 C 354.910 85.000,354.500 84.539,354.500 84.345 C 354.500 84.247,354.425 84.167,354.333 84.167 C 353.993 84.167,354.166 83.153,354.576 82.742 C 354.801 82.517,355.031 82.333,355.088 82.333 C 355.213 82.333,355.667 81.892,355.667 81.770 C 355.667 81.722,356.342 81.009,357.167 80.185 C 358.084 79.268,358.667 78.553,358.667 78.343 C 358.667 78.154,358.744 78.000,358.839 78.000 C 359.064 78.000,362.500 74.564,362.500 74.339 C 362.500 74.244,362.578 74.167,362.674 74.167 C 362.900 74.167,363.667 73.400,363.667 73.174 C 363.667 73.078,363.779 73.000,363.917 73.000 C 364.054 73.000,364.167 72.867,364.167 72.703 C 364.167 72.540,364.317 72.299,364.500 72.167 C 364.683 72.035,364.833 71.830,364.833 71.713 C 364.833 71.596,364.912 71.500,365.008 71.500 C 365.193 71.500,366.000 70.751,366.000 70.579 C 366.000 70.446,366.446 70.000,366.579 70.000 C 366.751 70.000,367.500 69.193,367.500 69.008 C 367.500 68.912,367.585 68.833,367.689 68.833 C 367.885 68.833,368.208 68.504,368.760 67.742 C 368.938 67.497,369.177 67.198,369.292 67.077 C 369.406 66.956,369.500 66.811,369.500 66.754 C 369.500 66.620,370.287 65.833,370.421 65.833 C 370.649 65.833,371.000 65.336,371.000 65.012 C 371.000 64.669,370.963 64.667,364.571 64.667 C 357.949 64.667,357.667 64.693,357.667 65.321 C 357.667 65.420,357.588 65.500,357.491 65.500 C 357.221 65.500,354.500 68.309,354.500 68.587 C 354.500 68.723,354.425 68.833,354.333 68.833 C 354.242 68.833,354.167 68.946,354.167 69.083 C 354.167 69.221,354.089 69.333,353.994 69.333 C 353.770 69.333,352.667 70.437,352.667 70.661 C 352.667 70.756,352.588 70.833,352.492 70.833 C 352.266 70.833,351.500 71.600,351.500 71.826 C 351.500 71.922,351.422 72.000,351.326 72.000 C 351.140 72.000,350.333 72.749,350.333 72.921 C 350.333 73.057,349.887 73.500,349.750 73.500 C 349.577 73.500,349.167 73.961,349.167 74.155 C 349.167 74.253,349.092 74.333,349.000 74.333 C 348.908 74.333,348.833 74.483,348.833 74.667 C 348.833 74.850,348.753 75.000,348.655 75.000 C 348.461 75.000,348.000 75.410,348.000 75.583 C 348.000 75.722,347.556 76.167,347.417 76.167 C 347.278 76.167,346.833 76.611,346.833 76.750 C 346.833 76.889,346.389 77.333,346.250 77.333 C 346.113 77.333,345.667 77.777,345.667 77.912 C 345.667 78.085,344.860 78.833,344.674 78.833 C 344.578 78.833,344.500 78.914,344.500 79.012 C 344.500 79.199,344.092 79.667,343.929 79.667 C 343.876 79.667,343.833 71.904,343.833 62.417 L 343.833 45.167 338.417 45.167 L 333.000 45.167 333.000 75.086 M14.333 54.083 L 14.333 58.500 23.167 58.500 L 32.000 58.500 32.000 81.750 L 32.000 105.000 37.417 105.000 L 42.833 105.000 42.833 81.750 L 42.833 58.500 51.667 58.500 L 60.500 58.500 60.500 54.083 L 60.500 49.667 37.417 49.667 L 14.333 49.667 14.333 54.083 M73.894 64.083 C 73.828 64.253,73.563 64.333,73.066 64.333 C 72.663 64.333,72.333 64.408,72.333 64.500 C 72.333 64.592,72.071 64.667,71.750 64.667 C 71.429 64.667,71.167 64.742,71.167 64.833 C 71.167 64.925,70.939 65.000,70.661 65.000 C 70.366 65.000,70.116 65.104,70.060 65.250 C 70.008 65.387,69.822 65.500,69.649 65.500 C 69.475 65.500,69.333 65.575,69.333 65.667 C 69.333 65.758,69.162 65.833,68.953 65.833 C 68.745 65.833,68.465 65.983,68.333 66.167 C 68.201 66.350,67.970 66.500,67.820 66.500 C 67.670 66.500,67.406 66.688,67.234 66.917 C 67.062 67.146,66.807 67.336,66.669 67.339 C 66.388 67.345,65.833 67.721,65.833 67.905 C 65.833 68.053,65.395 68.500,65.250 68.500 C 65.113 68.500,64.667 68.943,64.667 69.079 C 64.667 69.251,63.860 70.000,63.674 70.000 C 63.578 70.000,63.500 70.112,63.500 70.250 C 63.500 70.387,63.425 70.500,63.333 70.500 C 63.242 70.500,63.167 70.623,63.167 70.773 C 63.167 70.922,62.979 71.219,62.750 71.431 C 62.521 71.644,62.333 71.933,62.333 72.075 C 62.333 72.217,62.258 72.333,62.167 72.333 C 62.075 72.333,62.000 72.521,62.000 72.750 C 62.000 72.979,61.925 73.167,61.833 73.167 C 61.742 73.167,61.667 73.317,61.667 73.500 C 61.667 73.685,61.556 73.833,61.417 73.833 C 61.261 73.833,61.167 73.991,61.167 74.250 C 61.167 74.479,61.092 74.667,61.000 74.667 C 60.908 74.667,60.833 74.817,60.833 75.000 C 60.833 75.183,60.758 75.333,60.667 75.333 C 60.575 75.333,60.500 75.588,60.500 75.899 C 60.500 76.248,60.404 76.501,60.250 76.560 C 60.104 76.616,60.000 76.866,60.000 77.161 C 60.000 77.439,59.925 77.667,59.833 77.667 C 59.742 77.667,59.667 78.000,59.667 78.407 C 59.667 78.814,59.592 79.193,59.500 79.250 C 59.408 79.307,59.333 79.949,59.333 80.677 C 59.333 81.448,59.264 82.000,59.167 82.000 C 59.060 82.000,59.000 83.361,59.000 85.750 C 59.000 88.139,59.060 89.500,59.167 89.500 C 59.262 89.500,59.333 90.000,59.333 90.667 C 59.333 91.333,59.405 91.833,59.500 91.833 C 59.592 91.833,59.667 92.166,59.667 92.573 C 59.667 92.981,59.742 93.360,59.833 93.417 C 59.925 93.473,60.000 93.660,60.000 93.831 C 60.000 94.003,60.112 94.255,60.250 94.393 C 60.387 94.530,60.500 94.798,60.500 94.988 C 60.500 95.178,60.575 95.333,60.667 95.333 C 60.758 95.333,60.833 95.564,60.833 95.845 C 60.833 96.356,61.150 96.833,61.488 96.833 C 61.586 96.833,61.667 97.021,61.667 97.250 C 61.667 97.479,61.742 97.667,61.833 97.667 C 61.925 97.667,62.002 97.798,62.005 97.958 C 62.012 98.319,62.387 98.833,62.643 98.833 C 62.748 98.833,62.833 98.983,62.833 99.167 C 62.833 99.350,62.908 99.500,63.000 99.500 C 63.092 99.500,63.167 99.580,63.167 99.679 C 63.167 99.873,63.577 100.333,63.750 100.333 C 63.887 100.333,64.333 100.777,64.333 100.912 C 64.333 101.046,65.120 101.833,65.254 101.833 C 65.311 101.833,65.462 101.927,65.589 102.042 C 66.141 102.536,66.329 102.667,66.493 102.667 C 66.589 102.667,66.667 102.742,66.667 102.833 C 66.667 102.925,66.817 103.000,67.000 103.000 C 67.183 103.000,67.333 103.075,67.333 103.167 C 67.333 103.258,67.446 103.333,67.583 103.333 C 67.721 103.333,67.833 103.446,67.833 103.583 C 67.833 103.722,67.981 103.833,68.167 103.833 C 68.350 103.833,68.500 103.908,68.500 104.000 C 68.500 104.092,68.688 104.167,68.917 104.167 C 69.146 104.167,69.333 104.242,69.333 104.333 C 69.333 104.425,69.596 104.500,69.917 104.500 C 70.324 104.500,70.500 104.575,70.500 104.750 C 70.500 104.925,70.676 105.000,71.083 105.000 C 71.404 105.000,71.667 105.075,71.667 105.167 C 71.667 105.258,72.004 105.333,72.417 105.333 C 72.829 105.333,73.167 105.408,73.167 105.500 C 73.167 105.592,73.571 105.667,74.066 105.667 C 74.711 105.667,74.991 105.737,75.060 105.917 C 75.143 106.132,75.931 106.167,80.750 106.167 C 85.569 106.167,86.357 106.132,86.440 105.917 C 86.512 105.728,86.817 105.667,87.684 105.667 C 88.339 105.667,88.833 105.595,88.833 105.500 C 88.833 105.407,89.278 105.333,89.833 105.333 C 90.389 105.333,90.833 105.259,90.833 105.167 C 90.833 105.075,91.171 105.000,91.583 105.000 C 92.139 105.000,92.333 104.935,92.333 104.750 C 92.333 104.575,92.509 104.500,92.917 104.500 C 93.237 104.500,93.500 104.425,93.500 104.333 C 93.500 104.242,93.650 104.167,93.833 104.167 C 94.157 104.167,94.167 104.056,94.167 100.167 L 94.167 96.167 93.250 96.167 C 92.746 96.167,92.333 96.242,92.333 96.333 C 92.333 96.425,91.996 96.500,91.583 96.500 C 91.171 96.500,90.833 96.575,90.833 96.667 C 90.833 96.758,90.418 96.833,89.911 96.833 C 89.246 96.833,88.963 96.903,88.894 97.083 C 88.821 97.272,88.516 97.333,87.649 97.333 C 86.994 97.333,86.500 97.405,86.500 97.500 C 86.500 97.607,85.000 97.667,82.333 97.667 C 79.667 97.667,78.167 97.607,78.167 97.500 C 78.167 97.408,77.837 97.333,77.434 97.333 C 76.937 97.333,76.672 97.253,76.606 97.083 C 76.554 96.946,76.358 96.833,76.172 96.833 C 75.986 96.833,75.833 96.758,75.833 96.667 C 75.833 96.575,75.646 96.500,75.417 96.500 C 75.188 96.500,75.000 96.425,75.000 96.333 C 75.000 96.242,74.858 96.167,74.684 96.167 C 74.511 96.167,74.326 96.054,74.273 95.917 C 74.220 95.779,74.041 95.667,73.875 95.667 C 73.709 95.667,73.465 95.517,73.333 95.333 C 73.201 95.150,73.029 95.000,72.951 95.000 C 72.788 95.000,72.333 94.574,72.333 94.421 C 72.333 94.364,72.146 94.131,71.917 93.902 C 71.688 93.672,71.500 93.392,71.500 93.279 C 71.500 93.166,71.350 92.965,71.167 92.833 C 70.983 92.701,70.833 92.422,70.833 92.213 C 70.833 92.004,70.758 91.833,70.667 91.833 C 70.575 91.833,70.500 91.616,70.500 91.351 C 70.500 91.076,70.393 90.828,70.250 90.773 C 70.079 90.707,70.000 90.439,70.000 89.922 C 70.000 89.507,69.925 89.167,69.833 89.167 C 69.742 89.167,69.667 88.904,69.667 88.583 L 69.667 88.000 82.750 88.000 L 95.833 88.000 95.833 83.833 C 95.833 80.241,95.799 79.667,95.583 79.667 C 95.385 79.667,95.333 79.426,95.333 78.500 C 95.333 77.833,95.262 77.333,95.167 77.333 C 95.075 77.333,95.000 76.996,95.000 76.583 C 95.000 76.171,94.925 75.833,94.833 75.833 C 94.742 75.833,94.667 75.571,94.667 75.250 C 94.667 74.843,94.591 74.667,94.417 74.667 C 94.242 74.667,94.167 74.491,94.167 74.083 C 94.167 73.762,94.092 73.500,94.000 73.500 C 93.908 73.500,93.833 73.313,93.833 73.083 C 93.833 72.854,93.758 72.667,93.667 72.667 C 93.575 72.667,93.500 72.517,93.500 72.333 C 93.500 72.150,93.425 72.000,93.333 72.000 C 93.242 72.000,93.167 71.848,93.167 71.661 C 93.167 71.475,93.054 71.280,92.917 71.227 C 92.779 71.174,92.667 71.003,92.667 70.847 C 92.667 70.691,92.517 70.402,92.333 70.205 C 92.150 70.008,92.000 69.767,92.000 69.668 C 92.000 69.570,91.888 69.446,91.750 69.394 C 91.612 69.341,91.500 69.227,91.500 69.141 C 91.500 68.929,90.724 68.167,90.508 68.167 C 90.412 68.167,90.333 68.088,90.333 67.992 C 90.333 67.689,89.529 67.000,89.174 67.000 C 88.987 67.000,88.833 66.920,88.833 66.821 C 88.833 66.539,88.387 66.167,88.049 66.167 C 87.879 66.167,87.632 66.017,87.500 65.833 C 87.368 65.650,87.089 65.500,86.880 65.500 C 86.653 65.500,86.500 65.399,86.500 65.250 C 86.500 65.075,86.324 65.000,85.917 65.000 C 85.596 65.000,85.333 64.925,85.333 64.833 C 85.333 64.742,85.113 64.667,84.843 64.667 C 84.574 64.667,84.307 64.592,84.250 64.500 C 84.193 64.408,83.814 64.333,83.407 64.333 C 82.860 64.333,82.667 64.268,82.667 64.083 C 82.667 63.868,82.073 63.833,78.328 63.833 C 74.625 63.833,73.975 63.870,73.894 64.083 M118.500 64.083 C 118.500 64.278,118.278 64.333,117.500 64.333 C 116.944 64.333,116.500 64.407,116.500 64.500 C 116.500 64.592,116.237 64.667,115.917 64.667 C 115.596 64.667,115.333 64.742,115.333 64.833 C 115.333 64.925,115.106 65.000,114.828 65.000 C 114.533 65.000,114.283 65.104,114.227 65.250 C 114.174 65.387,113.989 65.500,113.816 65.500 C 113.642 65.500,113.500 65.575,113.500 65.667 C 113.500 65.758,113.313 65.833,113.083 65.833 C 112.854 65.833,112.667 65.908,112.667 66.000 C 112.667 66.092,112.479 66.167,112.250 66.167 C 112.021 66.167,111.833 66.242,111.833 66.333 C 111.833 66.425,111.731 66.500,111.607 66.500 C 111.482 66.500,111.239 66.688,111.067 66.917 C 110.895 67.146,110.617 67.333,110.449 67.333 C 110.113 67.333,109.667 67.707,109.667 67.988 C 109.667 68.086,109.512 68.167,109.323 68.167 C 108.951 68.167,106.500 70.527,106.500 70.885 C 106.500 71.000,106.350 71.201,106.167 71.333 C 105.983 71.465,105.833 71.670,105.833 71.787 C 105.833 71.904,105.721 72.000,105.583 72.000 C 105.444 72.000,105.333 72.148,105.333 72.333 C 105.333 72.517,105.258 72.667,105.167 72.667 C 105.075 72.667,105.000 72.854,105.000 73.083 C 105.000 73.313,104.925 73.500,104.833 73.500 C 104.742 73.500,104.667 73.642,104.667 73.816 C 104.667 73.989,104.554 74.174,104.417 74.227 C 104.279 74.280,104.167 74.475,104.167 74.661 C 104.167 74.848,104.092 75.000,104.000 75.000 C 103.908 75.000,103.833 75.188,103.833 75.417 C 103.833 75.646,103.758 75.833,103.667 75.833 C 103.575 75.833,103.500 75.983,103.500 76.167 C 103.500 76.350,103.428 76.500,103.341 76.500 C 103.253 76.500,103.132 76.763,103.072 77.085 C 103.012 77.407,102.896 77.711,102.814 77.762 C 102.733 77.812,102.667 78.144,102.667 78.500 C 102.667 78.856,102.592 79.193,102.500 79.250 C 102.408 79.307,102.333 79.949,102.333 80.677 C 102.333 81.448,102.264 82.000,102.167 82.000 C 102.061 82.000,102.000 83.306,102.000 85.583 C 102.000 87.861,102.061 89.167,102.167 89.167 C 102.262 89.167,102.333 89.667,102.333 90.333 C 102.333 91.000,102.405 91.500,102.500 91.500 C 102.592 91.500,102.667 91.837,102.667 92.250 C 102.667 92.662,102.742 93.000,102.833 93.000 C 102.925 93.000,103.000 93.227,103.000 93.505 C 103.000 93.801,103.104 94.050,103.250 94.106 C 103.404 94.166,103.500 94.419,103.500 94.768 C 103.500 95.079,103.575 95.333,103.667 95.333 C 103.758 95.333,103.833 95.479,103.833 95.657 C 103.833 95.835,103.908 96.027,104.000 96.083 C 104.092 96.140,104.167 96.332,104.167 96.510 C 104.167 96.688,104.279 96.833,104.417 96.833 C 104.566 96.833,104.667 96.987,104.667 97.213 C 104.667 97.422,104.817 97.701,105.000 97.833 C 105.183 97.965,105.333 98.189,105.333 98.330 C 105.333 98.471,105.594 98.811,105.913 99.085 C 106.232 99.359,106.494 99.645,106.496 99.720 C 106.501 99.884,106.931 100.333,107.083 100.333 C 107.222 100.333,107.667 100.778,107.667 100.917 C 107.667 101.061,108.114 101.500,108.261 101.500 C 108.326 101.500,108.603 101.763,108.877 102.083 C 109.152 102.404,109.500 102.667,109.651 102.667 C 109.803 102.667,110.035 102.817,110.167 103.000 C 110.299 103.183,110.578 103.333,110.787 103.333 C 111.013 103.333,111.167 103.434,111.167 103.583 C 111.167 103.722,111.315 103.833,111.500 103.833 C 111.683 103.833,111.833 103.908,111.833 104.000 C 111.833 104.092,112.021 104.167,112.250 104.167 C 112.479 104.167,112.667 104.242,112.667 104.333 C 112.667 104.425,112.846 104.500,113.066 104.500 C 113.285 104.500,113.508 104.612,113.560 104.750 C 113.616 104.896,113.866 105.000,114.161 105.000 C 114.439 105.000,114.667 105.075,114.667 105.167 C 114.667 105.258,115.004 105.333,115.417 105.333 C 115.829 105.333,116.167 105.408,116.167 105.500 C 116.167 105.592,116.571 105.667,117.066 105.667 C 117.711 105.667,117.991 105.737,118.060 105.917 C 118.143 106.131,118.848 106.167,123.000 106.167 C 127.152 106.167,127.857 106.131,127.940 105.917 C 128.010 105.734,128.299 105.667,129.018 105.667 C 129.561 105.667,130.000 105.592,130.000 105.500 C 130.000 105.408,130.337 105.333,130.750 105.333 C 131.162 105.333,131.500 105.258,131.500 105.167 C 131.500 105.075,131.727 105.000,132.005 105.000 C 132.301 105.000,132.550 104.896,132.606 104.750 C 132.659 104.612,132.844 104.500,133.018 104.500 C 133.319 104.500,133.333 104.310,133.333 100.333 L 133.333 96.167 132.417 96.167 C 131.912 96.167,131.500 96.242,131.500 96.333 C 131.500 96.425,131.162 96.500,130.750 96.500 C 130.337 96.500,130.000 96.575,130.000 96.667 C 130.000 96.758,129.660 96.833,129.245 96.833 C 128.727 96.833,128.459 96.912,128.394 97.083 C 128.312 97.295,127.750 97.333,124.750 97.333 C 121.750 97.333,121.188 97.295,121.106 97.083 C 121.051 96.939,120.802 96.833,120.515 96.833 C 120.243 96.833,119.973 96.758,119.917 96.667 C 119.860 96.575,119.593 96.500,119.323 96.500 C 119.054 96.500,118.833 96.425,118.833 96.333 C 118.833 96.242,118.646 96.167,118.417 96.167 C 118.188 96.167,118.000 96.086,118.000 95.988 C 118.000 95.720,117.560 95.333,117.254 95.333 C 116.955 95.333,116.167 94.614,116.167 94.341 C 116.167 94.245,116.086 94.167,115.988 94.167 C 115.735 94.167,115.333 93.733,115.333 93.460 C 115.333 93.333,115.201 93.084,115.040 92.906 C 114.574 92.392,114.167 91.700,114.167 91.423 C 114.167 91.282,114.092 91.167,114.000 91.167 C 113.908 91.167,113.833 90.979,113.833 90.750 C 113.833 90.521,113.758 90.333,113.667 90.333 C 113.575 90.333,113.500 90.031,113.500 89.661 C 113.500 89.218,113.415 88.957,113.250 88.894 C 113.071 88.825,113.000 88.545,113.000 87.909 C 113.000 87.420,112.925 86.973,112.833 86.917 C 112.740 86.859,112.667 86.082,112.667 85.157 C 112.667 84.163,112.733 83.500,112.833 83.500 C 112.928 83.500,113.000 83.006,113.000 82.351 C 113.000 81.484,113.061 81.179,113.250 81.106 C 113.396 81.050,113.500 80.801,113.500 80.505 C 113.500 80.227,113.575 80.000,113.667 80.000 C 113.758 80.000,113.833 79.737,113.833 79.417 C 113.833 79.096,113.908 78.833,114.000 78.833 C 114.092 78.833,114.167 78.646,114.167 78.417 C 114.167 78.157,114.261 78.000,114.417 78.000 C 114.554 78.000,114.667 77.884,114.667 77.743 C 114.667 77.602,114.817 77.325,115.000 77.128 C 115.183 76.931,115.333 76.667,115.333 76.540 C 115.333 76.267,115.735 75.833,115.988 75.833 C 116.086 75.833,116.167 75.753,116.167 75.655 C 116.167 75.408,116.596 75.001,116.863 74.995 C 117.165 74.987,117.667 74.589,117.667 74.357 C 117.667 74.252,117.817 74.167,118.000 74.167 C 118.183 74.167,118.333 74.092,118.333 74.000 C 118.333 73.908,118.521 73.833,118.750 73.833 C 118.979 73.833,119.167 73.758,119.167 73.667 C 119.167 73.575,119.354 73.500,119.583 73.500 C 119.813 73.500,120.000 73.425,120.000 73.333 C 120.000 73.242,120.227 73.167,120.505 73.167 C 120.801 73.167,121.050 73.063,121.106 72.917 C 121.187 72.706,121.732 72.667,124.583 72.667 C 127.435 72.667,127.979 72.706,128.060 72.917 C 128.123 73.081,128.384 73.167,128.818 73.167 C 129.182 73.167,129.527 73.242,129.583 73.333 C 129.640 73.425,130.019 73.500,130.427 73.500 C 130.834 73.500,131.167 73.575,131.167 73.667 C 131.167 73.758,131.504 73.833,131.917 73.833 L 132.667 73.833 132.667 69.667 C 132.667 66.074,132.632 65.500,132.417 65.500 C 132.279 65.500,132.167 65.387,132.167 65.250 C 132.167 65.084,132.001 65.000,131.677 65.000 C 131.407 65.000,131.140 64.925,131.083 64.833 C 131.027 64.742,130.647 64.667,130.240 64.667 C 129.833 64.667,129.500 64.592,129.500 64.500 C 129.500 64.408,129.171 64.333,128.768 64.333 C 128.271 64.333,128.005 64.253,127.940 64.083 C 127.858 63.869,127.171 63.833,123.172 63.833 C 119.130 63.833,118.500 63.867,118.500 64.083 M283.894 64.083 C 283.836 64.233,283.585 64.333,283.269 64.333 C 282.931 64.333,282.653 64.454,282.500 64.667 C 282.368 64.850,282.126 65.000,281.963 65.000 C 281.800 65.000,281.667 65.109,281.667 65.242 C 281.667 65.376,281.479 65.672,281.250 65.902 C 280.988 66.164,280.833 66.507,280.833 66.826 C 280.833 67.105,280.758 67.333,280.667 67.333 C 280.574 67.333,280.500 67.778,280.500 68.333 C 280.500 68.889,280.574 69.333,280.667 69.333 C 280.758 69.333,280.833 69.558,280.833 69.833 C 280.833 70.108,280.908 70.333,281.000 70.333 C 281.092 70.333,281.167 70.489,281.167 70.679 C 281.167 71.048,281.527 71.500,281.821 71.500 C 281.920 71.500,282.000 71.578,282.000 71.674 C 282.000 71.900,282.766 72.667,282.992 72.667 C 283.088 72.667,283.167 72.779,283.167 72.917 C 283.167 73.054,283.242 73.167,283.333 73.167 C 283.425 73.167,283.500 73.285,283.500 73.429 C 283.500 73.728,283.889 74.167,284.155 74.167 C 284.253 74.167,284.333 74.279,284.333 74.417 C 284.333 74.554,284.408 74.667,284.500 74.667 C 284.592 74.667,284.667 74.817,284.667 75.000 C 284.667 75.183,284.742 75.333,284.833 75.333 C 284.925 75.333,285.000 75.446,285.000 75.583 C 285.000 75.721,285.075 75.833,285.167 75.833 C 285.258 75.833,285.333 75.948,285.333 76.089 C 285.333 76.229,285.446 76.387,285.583 76.440 C 285.721 76.492,285.833 76.715,285.833 76.934 C 285.833 77.154,285.908 77.333,286.000 77.333 C 286.092 77.333,286.167 77.596,286.167 77.917 C 286.167 78.237,286.242 78.500,286.333 78.500 C 286.425 78.500,286.500 78.837,286.500 79.250 C 286.500 79.806,286.565 80.000,286.750 80.000 C 286.961 80.000,287.000 80.387,287.000 82.482 C 287.000 84.535,286.957 84.981,286.750 85.060 C 286.586 85.123,286.500 85.384,286.500 85.818 C 286.500 86.182,286.425 86.527,286.333 86.583 C 286.242 86.640,286.167 86.907,286.167 87.177 C 286.167 87.446,286.092 87.667,286.000 87.667 C 285.908 87.667,285.833 87.921,285.833 88.232 C 285.833 88.581,285.738 88.834,285.583 88.894 C 285.446 88.946,285.333 89.125,285.333 89.291 C 285.333 89.457,285.183 89.701,285.000 89.833 C 284.817 89.965,284.667 90.199,284.667 90.353 C 284.667 90.506,284.480 90.808,284.253 91.024 C 284.025 91.240,283.838 91.510,283.836 91.625 C 283.835 91.740,283.758 91.833,283.667 91.833 C 283.575 91.833,283.500 91.914,283.500 92.012 C 283.500 92.206,283.090 92.667,282.917 92.667 C 282.778 92.667,282.333 93.111,282.333 93.250 C 282.333 93.423,281.873 93.833,281.679 93.833 C 281.580 93.833,281.500 93.908,281.500 94.000 C 281.500 94.092,281.363 94.167,281.195 94.167 C 281.027 94.167,280.789 94.354,280.667 94.583 C 280.527 94.845,280.299 95.000,280.055 95.000 C 279.841 95.000,279.667 95.075,279.667 95.167 C 279.667 95.258,279.566 95.333,279.442 95.333 C 279.108 95.333,278.167 95.834,278.167 96.012 C 278.167 96.097,277.979 96.167,277.750 96.167 C 277.521 96.167,277.333 96.242,277.333 96.333 C 277.333 96.425,277.071 96.500,276.750 96.500 C 276.429 96.500,276.167 96.575,276.167 96.667 C 276.167 96.758,275.789 96.833,275.328 96.833 C 274.736 96.833,274.461 96.907,274.394 97.083 C 274.316 97.285,273.935 97.333,272.417 97.333 C 270.898 97.333,270.517 97.285,270.440 97.083 C 270.370 96.903,270.088 96.833,269.422 96.833 C 268.915 96.833,268.500 96.758,268.500 96.667 C 268.500 96.575,268.237 96.500,267.917 96.500 C 267.596 96.500,267.333 96.425,267.333 96.333 C 267.333 96.242,267.191 96.167,267.018 96.167 C 266.844 96.167,266.659 96.054,266.606 95.917 C 266.554 95.779,266.358 95.667,266.172 95.667 C 265.986 95.667,265.833 95.592,265.833 95.500 C 265.833 95.408,265.662 95.333,265.453 95.333 C 265.245 95.333,264.965 95.183,264.833 95.000 C 264.701 94.817,264.498 94.667,264.381 94.667 C 264.024 94.667,260.500 91.036,260.500 90.668 C 260.500 90.482,260.389 90.333,260.250 90.333 C 260.111 90.333,260.000 90.185,260.000 90.000 C 260.000 89.817,259.925 89.667,259.833 89.667 C 259.742 89.667,259.667 89.554,259.667 89.417 C 259.667 89.279,259.592 89.167,259.500 89.167 C 259.408 89.167,259.333 88.991,259.333 88.776 C 259.333 88.310,258.874 87.333,258.654 87.333 C 258.570 87.333,258.500 87.071,258.500 86.750 C 258.500 86.429,258.425 86.167,258.333 86.167 C 258.238 86.167,258.167 85.667,258.167 85.000 C 258.167 84.333,258.095 83.833,258.000 83.833 C 257.903 83.833,257.833 83.278,257.833 82.500 C 257.833 81.722,257.903 81.167,258.000 81.167 C 258.093 81.167,258.167 80.722,258.167 80.167 C 258.167 79.611,258.241 79.167,258.333 79.167 C 258.425 79.167,258.500 78.912,258.500 78.601 C 258.500 78.252,258.596 77.999,258.750 77.940 C 258.887 77.887,259.000 77.654,259.000 77.422 C 259.000 77.190,259.075 77.000,259.167 77.000 C 259.258 77.000,259.333 76.847,259.333 76.660 C 259.333 76.473,259.483 76.158,259.667 75.962 C 259.850 75.765,260.000 75.468,260.000 75.302 C 260.000 75.136,260.112 75.000,260.250 75.000 C 260.391 75.000,260.500 74.851,260.500 74.659 C 260.500 74.304,261.189 73.500,261.492 73.500 C 261.588 73.500,261.667 73.420,261.667 73.322 C 261.667 73.225,262.079 72.745,262.583 72.257 C 263.087 71.769,263.500 71.249,263.500 71.101 C 263.500 70.954,263.575 70.833,263.667 70.833 C 263.758 70.833,263.833 70.646,263.833 70.417 C 263.833 70.157,263.928 70.000,264.083 70.000 C 264.285 70.000,264.333 69.741,264.333 68.667 C 264.333 67.593,264.285 67.333,264.083 67.333 C 263.915 67.333,263.833 67.165,263.833 66.817 C 263.833 66.458,263.681 66.158,263.333 65.833 C 263.058 65.576,262.833 65.284,262.833 65.183 C 262.833 65.082,262.721 65.000,262.583 65.000 C 262.446 65.000,262.333 64.925,262.333 64.833 C 262.333 64.742,262.183 64.667,262.000 64.667 C 261.817 64.667,261.667 64.592,261.667 64.500 C 261.667 64.399,260.917 64.333,259.750 64.333 C 258.583 64.333,257.833 64.399,257.833 64.500 C 257.833 64.592,257.678 64.667,257.488 64.667 C 257.119 64.667,256.667 65.027,256.667 65.321 C 256.667 65.420,256.589 65.500,256.494 65.500 C 256.270 65.500,255.167 66.604,255.167 66.828 C 255.167 66.922,255.082 67.000,254.978 67.000 C 254.702 67.000,254.000 67.868,254.000 68.208 C 254.000 68.369,253.920 68.500,253.821 68.500 C 253.591 68.500,253.167 68.924,253.167 69.155 C 253.167 69.253,253.092 69.333,253.000 69.333 C 252.908 69.333,252.833 69.475,252.833 69.649 C 252.833 69.822,252.721 70.008,252.583 70.060 C 252.446 70.113,252.333 70.292,252.333 70.458 C 252.333 70.624,252.183 70.868,252.000 71.000 C 251.817 71.132,251.667 71.411,251.667 71.620 C 251.667 71.829,251.592 72.000,251.500 72.000 C 251.408 72.000,251.333 72.103,251.333 72.230 C 251.333 72.356,251.221 72.553,251.083 72.667 C 250.946 72.781,250.833 73.090,250.833 73.354 C 250.833 73.618,250.758 73.833,250.667 73.833 C 250.575 73.833,250.500 74.021,250.500 74.250 C 250.500 74.479,250.425 74.667,250.333 74.667 C 250.242 74.667,250.167 75.004,250.167 75.417 C 250.167 75.972,250.102 76.167,249.917 76.167 C 249.731 76.167,249.667 76.361,249.667 76.917 C 249.667 77.329,249.592 77.667,249.500 77.667 C 249.403 77.667,249.333 78.222,249.333 79.000 C 249.333 79.778,249.264 80.333,249.167 80.333 C 249.063 80.333,249.000 81.278,249.000 82.833 C 249.000 84.389,249.063 85.333,249.167 85.333 C 249.262 85.333,249.333 85.833,249.333 86.500 C 249.333 87.167,249.405 87.667,249.500 87.667 C 249.592 87.667,249.667 88.004,249.667 88.417 C 249.667 88.972,249.731 89.167,249.917 89.167 C 250.102 89.167,250.167 89.361,250.167 89.917 C 250.167 90.329,250.242 90.667,250.333 90.667 C 250.425 90.667,250.500 90.854,250.500 91.083 C 250.500 91.313,250.575 91.500,250.667 91.500 C 250.758 91.500,250.833 91.681,250.833 91.903 C 250.833 92.329,251.330 93.330,251.542 93.332 C 251.610 93.333,251.667 93.504,251.667 93.713 C 251.667 93.922,251.817 94.201,252.000 94.333 C 252.183 94.465,252.333 94.745,252.333 94.953 C 252.333 95.180,252.434 95.333,252.583 95.333 C 252.721 95.333,252.833 95.465,252.834 95.625 C 252.834 95.966,253.536 96.833,253.811 96.833 C 253.915 96.833,254.000 96.988,254.000 97.177 C 254.000 97.552,257.518 101.167,257.883 101.167 C 257.999 101.167,258.201 101.317,258.333 101.500 C 258.465 101.683,258.637 101.833,258.715 101.833 C 258.793 101.833,258.962 101.927,259.089 102.042 C 259.641 102.536,259.829 102.667,259.993 102.667 C 260.089 102.667,260.167 102.742,260.167 102.833 C 260.167 102.925,260.317 103.000,260.500 103.000 C 260.683 103.000,260.833 103.075,260.833 103.167 C 260.833 103.258,261.021 103.333,261.250 103.333 C 261.509 103.333,261.667 103.428,261.667 103.583 C 261.667 103.722,261.815 103.833,262.000 103.833 C 262.183 103.833,262.333 103.908,262.333 104.000 C 262.333 104.092,262.521 104.167,262.750 104.167 C 262.979 104.167,263.167 104.242,263.167 104.333 C 263.167 104.425,263.429 104.500,263.750 104.500 C 264.157 104.500,264.333 104.575,264.333 104.750 C 264.333 104.925,264.509 105.000,264.917 105.000 C 265.237 105.000,265.500 105.075,265.500 105.167 C 265.500 105.258,265.837 105.333,266.250 105.333 C 266.662 105.333,267.000 105.408,267.000 105.500 C 267.000 105.592,267.403 105.667,267.896 105.667 C 268.490 105.667,268.863 105.751,269.000 105.917 C 269.171 106.123,269.770 106.167,272.442 106.167 C 275.164 106.167,275.692 106.127,275.773 105.917 C 275.842 105.737,276.123 105.667,276.768 105.667 C 277.262 105.667,277.667 105.592,277.667 105.500 C 277.667 105.408,278.042 105.333,278.500 105.333 C 278.958 105.333,279.333 105.258,279.333 105.167 C 279.333 105.075,279.636 105.000,280.005 105.000 C 280.449 105.000,280.710 104.915,280.773 104.750 C 280.826 104.612,281.011 104.500,281.184 104.500 C 281.358 104.500,281.500 104.425,281.500 104.333 C 281.500 104.242,281.762 104.167,282.083 104.167 C 282.404 104.167,282.667 104.092,282.667 104.000 C 282.667 103.908,282.819 103.833,283.005 103.833 C 283.191 103.833,283.387 103.721,283.440 103.583 C 283.492 103.446,283.678 103.333,283.851 103.333 C 284.025 103.333,284.167 103.258,284.167 103.167 C 284.167 103.075,284.279 103.000,284.417 103.000 C 284.554 103.000,284.667 102.925,284.667 102.833 C 284.667 102.742,284.789 102.667,284.939 102.667 C 285.089 102.667,285.386 102.479,285.598 102.250 C 285.810 102.021,286.100 101.833,286.242 101.833 C 286.384 101.833,286.500 101.758,286.500 101.667 C 286.500 101.575,286.580 101.500,286.679 101.500 C 286.873 101.500,287.333 101.090,287.333 100.917 C 287.333 100.685,287.828 100.333,288.155 100.333 C 288.345 100.333,288.500 100.277,288.500 100.208 C 288.501 99.995,289.278 99.167,289.478 99.167 C 289.582 99.167,289.667 99.017,289.667 98.833 C 289.667 98.650,289.742 98.500,289.833 98.500 C 289.925 98.500,290.000 98.420,290.000 98.321 C 290.000 98.104,290.419 97.667,290.627 97.667 C 290.709 97.667,290.877 97.479,291.000 97.250 C 291.123 97.021,291.285 96.833,291.361 96.833 C 291.438 96.833,291.500 96.717,291.500 96.575 C 291.500 96.433,291.688 96.144,291.917 95.931 C 292.146 95.719,292.333 95.422,292.333 95.273 C 292.333 95.123,292.408 95.000,292.500 95.000 C 292.592 95.000,292.667 94.813,292.667 94.583 C 292.667 94.354,292.752 94.167,292.857 94.167 C 293.113 94.167,293.488 93.652,293.495 93.292 C 293.498 93.131,293.575 93.000,293.667 93.000 C 293.758 93.000,293.833 92.737,293.833 92.417 C 293.833 92.096,293.908 91.833,294.000 91.833 C 294.092 91.833,294.167 91.683,294.167 91.500 C 294.167 91.315,294.278 91.167,294.417 91.167 C 294.591 91.167,294.667 90.991,294.667 90.583 C 294.667 90.263,294.742 90.000,294.833 90.000 C 294.925 90.000,295.000 89.737,295.000 89.417 C 295.000 89.096,295.075 88.833,295.167 88.833 C 295.259 88.833,295.333 88.389,295.333 87.833 C 295.333 87.056,295.389 86.833,295.583 86.833 C 295.799 86.833,295.833 86.278,295.833 82.833 C 295.833 79.389,295.799 78.833,295.583 78.833 C 295.391 78.833,295.333 78.620,295.333 77.917 C 295.333 77.412,295.258 77.000,295.167 77.000 C 295.075 77.000,295.000 76.667,295.000 76.260 C 295.000 75.853,294.925 75.473,294.833 75.417 C 294.742 75.360,294.667 75.093,294.667 74.823 C 294.667 74.499,294.582 74.333,294.417 74.333 C 294.261 74.333,294.167 74.176,294.167 73.917 C 294.167 73.688,294.092 73.500,294.000 73.500 C 293.908 73.500,293.833 73.237,293.833 72.917 C 293.833 72.596,293.758 72.333,293.667 72.333 C 293.575 72.333,293.500 72.227,293.500 72.097 C 293.500 71.799,292.959 70.836,292.792 70.834 C 292.723 70.834,292.667 70.721,292.667 70.583 C 292.667 70.446,292.592 70.333,292.500 70.333 C 292.408 70.333,292.333 70.215,292.333 70.071 C 292.333 69.772,291.944 69.333,291.679 69.333 C 291.580 69.333,291.500 69.162,291.500 68.953 C 291.500 68.745,291.350 68.465,291.167 68.333 C 290.983 68.201,290.833 67.997,290.833 67.880 C 290.833 67.763,290.755 67.667,290.659 67.667 C 290.473 67.667,289.667 66.918,289.667 66.746 C 289.667 66.612,289.221 66.167,289.088 66.167 C 288.915 66.167,288.167 65.360,288.167 65.174 C 288.167 65.078,288.071 65.000,287.953 65.000 C 287.836 65.000,287.632 64.850,287.500 64.667 C 287.324 64.423,287.069 64.333,286.547 64.333 C 286.024 64.333,285.833 64.267,285.833 64.083 C 285.833 63.891,285.620 63.833,284.911 63.833 C 284.246 63.833,283.963 63.903,283.894 64.083 M320.727 64.083 C 320.662 64.253,320.396 64.333,319.899 64.333 C 319.496 64.333,319.167 64.408,319.167 64.500 C 319.167 64.592,319.017 64.667,318.833 64.667 C 318.650 64.667,318.500 64.742,318.500 64.833 C 318.500 64.925,318.237 65.000,317.917 65.000 C 317.509 65.000,317.333 65.075,317.333 65.250 C 317.333 65.387,317.221 65.500,317.083 65.500 C 316.946 65.500,316.833 65.575,316.833 65.667 C 316.833 65.758,316.683 65.833,316.500 65.833 C 316.317 65.833,316.167 65.896,316.167 65.972 C 316.167 66.048,315.979 66.211,315.750 66.333 C 315.521 66.456,315.333 66.656,315.333 66.778 C 315.333 66.900,315.220 67.000,315.082 67.000 C 314.750 67.000,313.833 67.824,313.833 68.123 C 313.833 68.399,313.433 68.833,313.179 68.833 C 313.080 68.833,313.000 68.946,313.000 69.083 C 313.000 69.221,312.925 69.333,312.833 69.333 C 312.741 69.333,312.667 68.889,312.667 68.333 C 312.667 67.783,312.595 67.333,312.507 67.333 C 312.419 67.333,312.325 66.752,312.299 66.042 L 312.250 64.750 307.667 64.750 L 303.083 64.750 303.083 84.833 L 303.083 104.917 308.458 104.961 L 313.833 105.005 313.833 91.542 L 313.833 78.079 314.278 77.748 C 314.833 77.334,315.000 77.167,315.415 76.611 C 315.597 76.367,315.840 76.167,315.956 76.167 C 316.072 76.167,316.167 76.092,316.167 76.000 C 316.167 75.908,316.317 75.833,316.500 75.833 C 316.685 75.833,316.833 75.722,316.833 75.583 C 316.833 75.428,316.991 75.333,317.250 75.333 C 317.479 75.333,317.667 75.258,317.667 75.167 C 317.667 75.075,317.812 75.000,317.990 75.000 C 318.168 75.000,318.360 74.925,318.417 74.833 C 318.473 74.742,318.665 74.667,318.843 74.667 C 319.021 74.667,319.167 74.554,319.167 74.417 C 319.167 74.231,319.361 74.167,319.917 74.167 C 320.329 74.167,320.667 74.092,320.667 74.000 C 320.667 73.908,321.000 73.833,321.407 73.833 C 321.814 73.833,322.193 73.758,322.250 73.667 C 322.310 73.569,323.280 73.500,324.593 73.500 C 325.976 73.500,326.833 73.436,326.833 73.333 C 326.833 73.242,327.021 73.167,327.250 73.167 L 327.667 73.167 327.667 68.500 L 327.667 63.833 324.245 63.833 C 321.357 63.833,320.808 63.872,320.727 64.083 M183.333 65.414 C 183.333 65.828,183.408 66.167,183.500 66.167 C 183.592 66.167,183.667 66.429,183.667 66.750 C 183.667 67.071,183.742 67.333,183.833 67.333 C 183.925 67.333,184.000 67.561,184.000 67.839 C 184.000 68.134,184.104 68.384,184.250 68.440 C 184.404 68.499,184.500 68.752,184.500 69.101 C 184.500 69.412,184.575 69.667,184.667 69.667 C 184.758 69.667,184.833 69.887,184.833 70.157 C 184.833 70.426,184.908 70.693,185.000 70.750 C 185.092 70.807,185.167 71.076,185.167 71.348 C 185.167 71.635,185.272 71.884,185.417 71.940 C 185.554 71.992,185.667 72.178,185.667 72.351 C 185.667 72.525,185.742 72.667,185.833 72.667 C 185.925 72.667,186.000 72.929,186.000 73.250 C 186.000 73.571,186.075 73.833,186.167 73.833 C 186.258 73.833,186.333 74.096,186.333 74.417 C 186.333 74.824,186.409 75.000,186.583 75.000 C 186.758 75.000,186.833 75.176,186.833 75.583 C 186.833 75.904,186.908 76.167,187.000 76.167 C 187.092 76.167,187.167 76.429,187.167 76.750 C 187.167 77.071,187.242 77.333,187.333 77.333 C 187.425 77.333,187.500 77.554,187.500 77.823 C 187.500 78.093,187.566 78.355,187.648 78.405 C 187.729 78.455,187.845 78.760,187.905 79.081 C 187.966 79.403,188.087 79.667,188.174 79.667 C 188.262 79.667,188.333 79.817,188.333 80.000 C 188.333 80.183,188.408 80.333,188.500 80.333 C 188.592 80.333,188.667 80.596,188.667 80.917 C 188.667 81.237,188.742 81.500,188.833 81.500 C 188.925 81.500,189.000 81.762,189.000 82.083 C 189.000 82.491,189.075 82.667,189.250 82.667 C 189.425 82.667,189.500 82.843,189.500 83.250 C 189.500 83.571,189.575 83.833,189.667 83.833 C 189.758 83.833,189.833 84.096,189.833 84.417 C 189.833 84.737,189.908 85.000,190.000 85.000 C 190.092 85.000,190.167 85.227,190.167 85.505 C 190.167 85.801,190.271 86.050,190.417 86.106 C 190.571 86.166,190.667 86.419,190.667 86.768 C 190.667 87.079,190.742 87.333,190.833 87.333 C 190.925 87.333,191.000 87.554,191.000 87.823 C 191.000 88.093,191.075 88.360,191.167 88.417 C 191.258 88.473,191.333 88.665,191.333 88.843 C 191.333 89.021,191.408 89.167,191.500 89.167 C 191.592 89.167,191.667 89.349,191.667 89.571 C 191.667 89.794,191.779 90.089,191.917 90.226 C 192.054 90.364,192.167 90.707,192.167 90.988 C 192.167 91.270,192.242 91.500,192.333 91.500 C 192.425 91.500,192.500 91.763,192.500 92.083 C 192.500 92.404,192.575 92.667,192.667 92.667 C 192.758 92.667,192.833 92.894,192.833 93.172 C 192.833 93.467,192.937 93.717,193.083 93.773 C 193.238 93.832,193.333 94.086,193.333 94.434 C 193.333 94.746,193.408 95.000,193.500 95.000 C 193.592 95.000,193.667 95.221,193.667 95.490 C 193.667 95.760,193.742 96.027,193.833 96.083 C 193.925 96.140,194.000 96.399,194.000 96.659 C 194.000 96.925,194.109 97.173,194.250 97.227 C 194.387 97.280,194.500 97.475,194.500 97.661 C 194.500 97.848,194.575 98.000,194.667 98.000 C 194.758 98.000,194.833 98.263,194.833 98.583 C 194.833 98.904,194.908 99.167,195.000 99.167 C 195.092 99.167,195.167 99.429,195.167 99.750 C 195.167 100.157,195.242 100.333,195.417 100.333 C 195.591 100.333,195.667 100.509,195.667 100.917 C 195.667 101.237,195.742 101.500,195.833 101.500 C 195.925 101.500,196.000 101.763,196.000 102.083 C 196.000 102.404,196.075 102.667,196.167 102.667 C 196.258 102.667,196.333 102.855,196.333 103.086 C 196.333 103.316,196.400 103.635,196.482 103.794 C 196.564 103.953,196.712 104.290,196.812 104.542 L 196.993 105.000 202.246 105.000 L 207.500 105.000 207.500 104.583 C 207.500 104.354,207.575 104.167,207.667 104.167 C 207.758 104.167,207.833 103.837,207.833 103.434 C 207.833 102.937,207.914 102.672,208.083 102.606 C 208.248 102.543,208.333 102.282,208.333 101.839 C 208.333 101.469,208.408 101.167,208.500 101.167 C 208.592 101.167,208.667 100.904,208.667 100.583 C 208.667 100.263,208.742 100.000,208.833 100.000 C 208.925 100.000,209.000 99.662,209.000 99.250 C 209.000 98.837,209.075 98.500,209.167 98.500 C 209.258 98.500,209.333 98.125,209.333 97.667 C 209.333 97.037,209.394 96.833,209.583 96.833 C 209.758 96.833,209.833 96.657,209.833 96.250 C 209.833 95.929,209.908 95.667,210.000 95.667 C 210.092 95.667,210.167 95.329,210.167 94.917 C 210.167 94.504,210.242 94.167,210.333 94.167 C 210.425 94.167,210.500 93.912,210.500 93.601 C 210.500 93.252,210.596 92.999,210.750 92.940 C 210.915 92.876,211.000 92.615,211.000 92.172 C 211.000 91.802,211.075 91.500,211.167 91.500 C 211.258 91.500,211.333 91.162,211.333 90.750 C 211.333 90.337,211.408 90.000,211.500 90.000 C 211.592 90.000,211.667 89.770,211.667 89.488 C 211.667 89.207,211.779 88.864,211.917 88.726 C 212.054 88.589,212.167 88.223,212.167 87.915 C 212.167 87.606,212.242 87.307,212.333 87.250 C 212.425 87.193,212.500 86.851,212.500 86.490 C 212.500 86.129,212.575 85.833,212.667 85.833 C 212.758 85.833,212.833 85.458,212.833 85.000 C 212.833 84.542,212.908 84.167,213.000 84.167 C 213.092 84.167,213.167 83.829,213.167 83.417 C 213.167 82.861,213.231 82.667,213.417 82.667 C 213.602 82.667,213.667 82.472,213.667 81.917 C 213.667 81.504,213.742 81.167,213.833 81.167 C 213.925 81.167,214.000 80.834,214.000 80.427 C 214.000 80.019,214.075 79.640,214.167 79.583 C 214.258 79.527,214.333 79.072,214.333 78.573 C 214.333 77.879,214.392 77.667,214.583 77.667 C 214.769 77.667,214.833 77.861,214.833 78.417 C 214.833 78.829,214.908 79.167,215.000 79.167 C 215.093 79.167,215.167 79.611,215.167 80.167 C 215.167 80.722,215.241 81.167,215.333 81.167 C 215.425 81.167,215.500 81.504,215.500 81.917 C 215.500 82.472,215.565 82.667,215.750 82.667 C 215.935 82.667,216.000 82.861,216.000 83.417 C 216.000 83.829,216.075 84.167,216.167 84.167 C 216.258 84.167,216.333 84.500,216.333 84.907 C 216.333 85.314,216.408 85.693,216.500 85.750 C 216.592 85.807,216.667 86.151,216.667 86.515 C 216.667 86.950,216.753 87.210,216.917 87.273 C 217.071 87.332,217.167 87.586,217.167 87.934 C 217.167 88.246,217.242 88.500,217.333 88.500 C 217.425 88.500,217.500 88.837,217.500 89.250 C 217.500 89.662,217.575 90.000,217.667 90.000 C 217.758 90.000,217.833 90.337,217.833 90.750 C 217.833 91.162,217.908 91.500,218.000 91.500 C 218.092 91.500,218.167 91.727,218.167 92.005 C 218.167 92.301,218.271 92.550,218.417 92.606 C 218.586 92.672,218.667 92.937,218.667 93.434 C 218.667 93.837,218.742 94.167,218.833 94.167 C 218.925 94.167,219.000 94.504,219.000 94.917 C 219.000 95.329,219.075 95.667,219.167 95.667 C 219.258 95.667,219.333 95.929,219.333 96.250 C 219.333 96.657,219.409 96.833,219.583 96.833 C 219.768 96.833,219.833 97.027,219.833 97.573 C 219.833 97.981,219.908 98.360,220.000 98.417 C 220.092 98.473,220.167 98.811,220.167 99.167 C 220.167 99.523,220.242 99.860,220.333 99.917 C 220.425 99.973,220.500 100.243,220.500 100.515 C 220.500 100.802,220.605 101.051,220.750 101.106 C 220.920 101.172,221.000 101.437,221.000 101.934 C 221.000 102.337,221.075 102.667,221.167 102.667 C 221.258 102.667,221.333 103.004,221.333 103.417 C 221.333 103.829,221.408 104.167,221.500 104.167 C 221.592 104.167,221.667 104.354,221.667 104.583 L 221.667 105.000 226.883 105.000 C 232.405 105.000,232.500 104.987,232.500 104.217 C 232.500 104.006,232.575 103.833,232.667 103.833 C 232.758 103.833,232.833 103.571,232.833 103.250 C 232.833 102.929,232.908 102.667,233.000 102.667 C 233.092 102.667,233.167 102.412,233.167 102.101 C 233.167 101.752,233.262 101.499,233.417 101.440 C 233.563 101.384,233.667 101.134,233.667 100.839 C 233.667 100.561,233.742 100.333,233.833 100.333 C 233.925 100.333,234.000 100.071,234.000 99.750 C 234.000 99.429,234.075 99.167,234.167 99.167 C 234.258 99.167,234.333 98.904,234.333 98.583 C 234.333 98.263,234.408 98.000,234.500 98.000 C 234.592 98.000,234.667 97.848,234.667 97.661 C 234.667 97.475,234.779 97.280,234.917 97.227 C 235.058 97.173,235.167 96.925,235.167 96.659 C 235.167 96.399,235.242 96.140,235.333 96.083 C 235.425 96.027,235.500 95.760,235.500 95.490 C 235.500 95.221,235.575 95.000,235.667 95.000 C 235.758 95.000,235.833 94.737,235.833 94.417 C 235.833 94.009,235.909 93.833,236.083 93.833 C 236.258 93.833,236.333 93.657,236.333 93.250 C 236.333 92.929,236.408 92.667,236.500 92.667 C 236.592 92.667,236.667 92.404,236.667 92.083 C 236.667 91.763,236.742 91.500,236.833 91.500 C 236.925 91.500,237.000 91.237,237.000 90.917 C 237.000 90.509,237.075 90.333,237.250 90.333 C 237.406 90.333,237.500 90.176,237.500 89.917 C 237.500 89.688,237.575 89.500,237.667 89.500 C 237.758 89.500,237.833 89.279,237.833 89.010 C 237.833 88.740,237.908 88.473,238.000 88.417 C 238.092 88.360,238.167 88.093,238.167 87.823 C 238.167 87.554,238.242 87.333,238.333 87.333 C 238.425 87.333,238.500 87.079,238.500 86.768 C 238.500 86.419,238.596 86.166,238.750 86.106 C 238.896 86.050,239.000 85.801,239.000 85.505 C 239.000 85.227,239.075 85.000,239.167 85.000 C 239.258 85.000,239.333 84.737,239.333 84.417 C 239.333 84.096,239.408 83.833,239.500 83.833 C 239.592 83.833,239.667 83.571,239.667 83.250 C 239.667 82.843,239.742 82.667,239.917 82.667 C 240.091 82.667,240.167 82.491,240.167 82.083 C 240.167 81.762,240.242 81.500,240.333 81.500 C 240.425 81.500,240.500 81.354,240.500 81.177 C 240.500 80.999,240.575 80.807,240.667 80.750 C 240.758 80.693,240.833 80.459,240.833 80.228 C 240.833 79.998,240.946 79.697,241.083 79.560 C 241.221 79.422,241.333 79.127,241.333 78.905 C 241.333 78.682,241.408 78.500,241.500 78.500 C 241.592 78.500,241.667 78.237,241.667 77.917 C 241.667 77.596,241.742 77.333,241.833 77.333 C 241.925 77.333,242.000 77.079,242.000 76.768 C 242.000 76.419,242.096 76.166,242.250 76.106 C 242.396 76.050,242.500 75.801,242.500 75.505 C 242.500 75.227,242.575 75.000,242.667 75.000 C 242.758 75.000,242.833 74.737,242.833 74.417 C 242.833 74.096,242.908 73.833,243.000 73.833 C 243.092 73.833,243.167 73.571,243.167 73.250 C 243.167 72.929,243.242 72.667,243.333 72.667 C 243.425 72.667,243.500 72.525,243.500 72.351 C 243.500 72.178,243.612 71.992,243.750 71.940 C 243.896 71.884,244.000 71.634,244.000 71.339 C 244.000 71.061,244.075 70.833,244.167 70.833 C 244.258 70.833,244.333 70.571,244.333 70.250 C 244.333 69.929,244.408 69.667,244.500 69.667 C 244.592 69.667,244.667 69.404,244.667 69.083 C 244.667 68.676,244.742 68.500,244.917 68.500 C 245.091 68.500,245.167 68.324,245.167 67.917 C 245.167 67.596,245.242 67.333,245.333 67.333 C 245.425 67.333,245.500 67.071,245.500 66.750 C 245.500 66.429,245.575 66.167,245.667 66.167 C 245.758 66.167,245.833 65.829,245.833 65.417 L 245.833 64.667 240.351 64.667 C 234.333 64.667,234.667 64.607,234.667 65.680 C 234.667 65.948,234.592 66.167,234.500 66.167 C 234.408 66.167,234.333 66.429,234.333 66.750 C 234.333 67.071,234.258 67.333,234.167 67.333 C 234.075 67.333,234.000 67.596,234.000 67.917 C 234.000 68.237,233.925 68.500,233.833 68.500 C 233.742 68.500,233.667 68.762,233.667 69.083 C 233.667 69.491,233.591 69.667,233.417 69.667 C 233.231 69.667,233.167 69.861,233.167 70.417 C 233.167 70.829,233.092 71.167,233.000 71.167 C 232.908 71.167,232.833 71.429,232.833 71.750 C 232.833 72.071,232.758 72.333,232.667 72.333 C 232.575 72.333,232.500 72.596,232.500 72.917 C 232.500 73.324,232.425 73.500,232.250 73.500 C 232.075 73.500,232.000 73.676,232.000 74.083 C 232.000 74.404,231.925 74.667,231.833 74.667 C 231.742 74.667,231.667 75.004,231.667 75.417 C 231.667 75.829,231.592 76.167,231.500 76.167 C 231.408 76.167,231.333 76.429,231.333 76.750 C 231.333 77.157,231.258 77.333,231.083 77.333 C 230.909 77.333,230.833 77.509,230.833 77.917 C 230.833 78.237,230.758 78.500,230.667 78.500 C 230.575 78.500,230.500 78.762,230.500 79.083 C 230.500 79.404,230.425 79.667,230.333 79.667 C 230.242 79.667,230.167 80.004,230.167 80.417 C 230.167 80.829,230.092 81.167,230.000 81.167 C 229.908 81.167,229.833 81.429,229.833 81.750 C 229.833 82.157,229.758 82.333,229.583 82.333 C 229.409 82.333,229.333 82.509,229.333 82.917 C 229.333 83.237,229.258 83.500,229.167 83.500 C 229.075 83.500,229.000 83.837,229.000 84.250 C 229.000 84.662,228.925 85.000,228.833 85.000 C 228.742 85.000,228.667 85.254,228.667 85.566 C 228.667 85.914,228.571 86.168,228.417 86.227 C 228.252 86.290,228.167 86.551,228.167 86.995 C 228.167 87.364,228.092 87.667,228.000 87.667 C 227.908 87.667,227.833 88.004,227.833 88.417 C 227.833 88.829,227.758 89.167,227.667 89.167 C 227.575 89.167,227.500 89.397,227.500 89.679 C 227.500 89.960,227.404 90.286,227.287 90.404 C 226.937 90.753,226.667 90.290,226.667 89.340 C 226.667 88.878,226.592 88.500,226.500 88.500 C 226.408 88.500,226.333 88.171,226.333 87.768 C 226.333 87.271,226.253 87.005,226.083 86.940 C 225.912 86.874,225.833 86.606,225.833 86.089 C 225.833 85.673,225.758 85.333,225.667 85.333 C 225.575 85.333,225.500 84.996,225.500 84.583 C 225.500 84.171,225.425 83.833,225.333 83.833 C 225.242 83.833,225.167 83.496,225.167 83.083 C 225.167 82.671,225.092 82.333,225.000 82.333 C 224.908 82.333,224.833 82.071,224.833 81.750 C 224.833 81.343,224.758 81.167,224.583 81.167 C 224.398 81.167,224.333 80.972,224.333 80.417 C 224.333 80.004,224.258 79.667,224.167 79.667 C 224.075 79.667,224.000 79.329,224.000 78.917 C 224.000 78.504,223.925 78.167,223.833 78.167 C 223.742 78.167,223.667 77.827,223.667 77.411 C 223.667 76.894,223.588 76.626,223.417 76.560 C 223.262 76.501,223.167 76.248,223.167 75.899 C 223.167 75.588,223.092 75.333,223.000 75.333 C 222.908 75.333,222.833 74.996,222.833 74.583 C 222.833 74.171,222.758 73.833,222.667 73.833 C 222.575 73.833,222.500 73.496,222.500 73.083 C 222.500 72.528,222.435 72.333,222.250 72.333 C 222.065 72.333,222.000 72.139,222.000 71.583 C 222.000 71.171,221.925 70.833,221.833 70.833 C 221.742 70.833,221.667 70.571,221.667 70.250 C 221.667 69.929,221.592 69.667,221.500 69.667 C 221.408 69.667,221.333 69.329,221.333 68.917 C 221.333 68.504,221.258 68.167,221.167 68.167 C 221.075 68.167,221.000 67.876,221.000 67.520 C 221.000 67.149,220.894 66.786,220.750 66.667 C 220.605 66.546,220.500 66.183,220.500 65.801 C 220.500 64.637,220.657 64.667,214.512 64.667 L 209.000 64.667 209.000 65.083 C 209.000 65.313,208.925 65.500,208.833 65.500 C 208.742 65.500,208.667 65.837,208.667 66.250 C 208.667 66.662,208.592 67.000,208.500 67.000 C 208.408 67.000,208.333 67.337,208.333 67.750 C 208.333 68.306,208.269 68.500,208.083 68.500 C 207.909 68.500,207.833 68.676,207.833 69.083 C 207.833 69.404,207.758 69.667,207.667 69.667 C 207.575 69.667,207.500 70.004,207.500 70.417 C 207.500 70.829,207.425 71.167,207.333 71.167 C 207.242 71.167,207.167 71.496,207.167 71.899 C 207.167 72.396,207.086 72.662,206.917 72.727 C 206.772 72.782,206.667 73.032,206.667 73.318 C 206.667 73.591,206.592 73.860,206.500 73.917 C 206.408 73.973,206.333 74.315,206.333 74.677 C 206.333 75.038,206.258 75.333,206.167 75.333 C 206.075 75.333,206.000 75.708,206.000 76.167 C 206.000 76.796,205.939 77.000,205.750 77.000 C 205.575 77.000,205.500 77.176,205.500 77.583 C 205.500 77.904,205.425 78.167,205.333 78.167 C 205.242 78.167,205.167 78.504,205.167 78.917 C 205.167 79.329,205.092 79.667,205.000 79.667 C 204.908 79.667,204.833 80.004,204.833 80.417 C 204.833 80.829,204.758 81.167,204.667 81.167 C 204.575 81.167,204.500 81.394,204.500 81.672 C 204.500 81.967,204.396 82.217,204.250 82.273 C 204.080 82.338,204.000 82.604,204.000 83.101 C 204.000 83.504,203.925 83.833,203.833 83.833 C 203.742 83.833,203.667 84.171,203.667 84.583 C 203.667 84.996,203.592 85.333,203.500 85.333 C 203.408 85.333,203.333 85.673,203.333 86.089 C 203.333 86.606,203.255 86.874,203.083 86.940 C 202.914 87.005,202.833 87.271,202.833 87.768 C 202.833 88.171,202.758 88.500,202.667 88.500 C 202.575 88.500,202.500 88.904,202.500 89.399 C 202.500 89.966,202.423 90.326,202.292 90.374 C 201.853 90.536,201.667 90.295,201.667 89.569 C 201.667 89.165,201.592 88.833,201.500 88.833 C 201.408 88.833,201.333 88.571,201.333 88.250 C 201.333 87.929,201.258 87.667,201.167 87.667 C 201.075 87.667,201.000 87.329,201.000 86.917 C 201.000 86.361,200.935 86.167,200.750 86.167 C 200.575 86.167,200.500 85.991,200.500 85.583 C 200.500 85.262,200.425 85.000,200.333 85.000 C 200.242 85.000,200.167 84.662,200.167 84.250 C 200.167 83.837,200.092 83.500,200.000 83.500 C 199.908 83.500,199.833 83.237,199.833 82.917 C 199.833 82.596,199.758 82.333,199.667 82.333 C 199.575 82.333,199.500 82.071,199.500 81.750 C 199.500 81.343,199.425 81.167,199.250 81.167 C 199.065 81.167,199.000 80.972,199.000 80.417 C 199.000 80.004,198.925 79.667,198.833 79.667 C 198.742 79.667,198.667 79.404,198.667 79.083 C 198.667 78.762,198.592 78.500,198.500 78.500 C 198.408 78.500,198.333 78.237,198.333 77.917 C 198.333 77.509,198.258 77.333,198.083 77.333 C 197.898 77.333,197.833 77.139,197.833 76.583 C 197.833 76.171,197.758 75.833,197.667 75.833 C 197.575 75.833,197.500 75.571,197.500 75.250 C 197.500 74.929,197.425 74.667,197.333 74.667 C 197.242 74.667,197.167 74.404,197.167 74.083 C 197.167 73.676,197.091 73.500,196.917 73.500 C 196.742 73.500,196.667 73.324,196.667 72.917 C 196.667 72.596,196.592 72.333,196.500 72.333 C 196.408 72.333,196.333 71.996,196.333 71.583 C 196.333 71.171,196.258 70.833,196.167 70.833 C 196.075 70.833,196.000 70.571,196.000 70.250 C 196.000 69.929,195.925 69.667,195.833 69.667 C 195.742 69.667,195.667 69.439,195.667 69.161 C 195.667 68.866,195.563 68.616,195.417 68.560 C 195.262 68.501,195.167 68.248,195.167 67.899 C 195.167 67.588,195.092 67.333,195.000 67.333 C 194.908 67.333,194.833 66.996,194.833 66.583 C 194.833 66.171,194.763 65.833,194.677 65.833 C 194.591 65.833,194.498 65.590,194.469 65.292 L 194.417 64.750 188.875 64.706 L 183.333 64.662 183.333 65.414 M80.000 72.500 C 80.000 72.592,80.262 72.667,80.583 72.667 C 80.991 72.667,81.167 72.742,81.167 72.917 C 81.167 73.054,81.279 73.167,81.417 73.167 C 81.554 73.167,81.667 73.242,81.667 73.333 C 81.667 73.425,81.800 73.500,81.963 73.500 C 82.126 73.500,82.368 73.650,82.500 73.833 C 82.632 74.017,82.836 74.167,82.953 74.167 C 83.071 74.167,83.167 74.338,83.167 74.547 C 83.167 74.755,83.317 75.035,83.500 75.167 C 83.683 75.299,83.833 75.578,83.833 75.787 C 83.833 76.013,83.934 76.167,84.083 76.167 C 84.258 76.167,84.333 76.343,84.333 76.750 C 84.333 77.071,84.408 77.333,84.500 77.333 C 84.592 77.333,84.667 77.671,84.667 78.083 C 84.667 78.496,84.742 78.833,84.833 78.833 C 84.925 78.833,85.000 79.096,85.000 79.417 L 85.000 80.000 77.500 80.000 C 70.705 80.000,69.408 79.930,70.250 79.606 C 70.421 79.541,70.500 79.273,70.500 78.755 C 70.500 78.340,70.575 78.000,70.667 78.000 C 70.758 78.000,70.833 77.775,70.833 77.500 C 70.833 77.225,70.908 77.000,71.000 77.000 C 71.092 77.000,71.167 76.813,71.167 76.583 C 71.167 76.354,71.252 76.167,71.357 76.167 C 71.601 76.167,71.988 75.658,71.995 75.328 C 71.998 75.188,72.150 74.965,72.333 74.833 C 72.517 74.701,72.667 74.497,72.667 74.380 C 72.667 74.263,72.763 74.167,72.880 74.167 C 72.997 74.167,73.201 74.017,73.333 73.833 C 73.465 73.650,73.688 73.498,73.828 73.495 C 74.158 73.488,74.667 73.101,74.667 72.857 C 74.667 72.751,74.925 72.667,75.250 72.667 C 75.571 72.667,75.833 72.592,75.833 72.500 C 75.833 72.398,76.639 72.333,77.917 72.333 C 79.194 72.333,80.000 72.398,80.000 72.500 M377.500 99.250 L 377.500 105.000 383.500 105.000 L 389.500 105.000 389.500 99.250 L 389.500 93.500 383.500 93.500 L 377.500 93.500 377.500 99.250 " stroke="none" fill="#0c141c" fill-rule="evenodd"></path><path id="path2" d="" stroke="none" fill="#c4d82c" fill-rule="evenodd"></path><path id="path3" d="" stroke="none" fill="#48782c" fill-rule="evenodd"></path><path id="path4" d="" stroke="none" fill="#4c142c" fill-rule="evenodd"></path></g></svg>